<svg width="334" height="96" xmlns="http://www.w3.org/2000/svg" xmlns:xlink="http://www.w3.org/1999/xlink" xml:space="preserve" overflow="hidden"><defs><filter id="fx0" x="-10%" y="-10%" width="120%" height="120%" filterUnits="userSpaceOnUse" primitiveUnits="userSpaceOnUse"><feComponentTransfer color-interpolation-filters="sRGB"><feFuncR type="discrete" tableValues="0.000000 0.000000"/><feFuncG type="discrete" tableValues="0.000000 0.000000"/><feFuncB type="discrete" tableValues="0.000000 0.000000"/><feFuncA type="linear" slope="0.400000" intercept="0.000000"/></feComponentTransfer><feGaussianBlur stdDeviation="1.662512 1.662512"/></filter></defs><g transform="translate(-999 -976)"><g><g filter="url(#fx0)" transform="translate(1004 982)"><g><g><path d="M22.8359-17.9761C22.8359-15.9647 22.2157-14.4381 20.9751-13.3962 19.7345-12.3544 18.2742-11.686 16.594-11.3909 14.9138-11.0958 13.1463-10.9482 11.2915-10.9482L9.66553-10.9482 9.66553-4.55273C9.66553-3.83008 9.74381-3.27002 9.90039-2.87256 10.057-2.4751 10.3942-2.17399 10.9121-1.96924 11.43-1.76449 12.2189-1.66211 13.2788-1.66211L13.2788 0 0.957519 0 0.957519-1.66211C2.00537-1.66211 2.77922-1.77051 3.27905-1.9873 3.77889-2.2041 4.10408-2.51123 4.25464-2.90869 4.40519-3.30615 4.48047-3.85417 4.48047-4.55273L4.48047-20.0176C4.48047-20.7161 4.4082-21.2611 4.26367-21.6526 4.11914-22.044 3.79394-22.3512 3.28809-22.574 2.78223-22.7968 2.00537-22.9082 0.957519-22.9082L0.957519-24.6064 7.94922-24.7871C8.31054-24.7992 8.705-24.8082 9.13257-24.8142 9.56014-24.8202 9.90039-24.8263 10.1533-24.8323 10.4062-24.8383 10.7796-24.8413 11.2734-24.8413 11.8877-24.8413 12.3454-24.8353 12.6465-24.8232 14.0798-24.763 15.4588-24.6245 16.7837-24.4077 18.1086-24.1909 19.4485-23.5797 20.8035-22.574 22.1584-21.5683 22.8359-20.0356 22.8359-17.9761ZM17.2715-17.9399C17.2715-19.8911 16.7024-21.1949 15.5642-21.8513 14.426-22.5077 12.9295-22.8359 11.0747-22.8359 10.7375-22.8359 10.2677-22.8239 9.66553-22.7998L9.66553-12.9536 11.3276-12.9536C13.0981-12.9536 14.5314-13.2577 15.6274-13.866 16.7235-14.4742 17.2715-15.8322 17.2715-17.9399ZM39.8035-12.5381C39.8035-11.8395 39.5898-11.2885 39.1622-10.885 38.7346-10.4815 38.2318-10.2798 37.6536-10.2798 36.9671-10.2798 36.3649-10.617 35.847-11.2915 35.6061-11.5926 35.4074-11.8094 35.2508-11.9419 35.0942-12.0744 34.8714-12.1406 34.5824-12.1406 33.6429-12.1406 32.9112-11.6318 32.3873-10.614 31.8634-9.59627 31.6014-8.53939 31.6014-7.44336L31.6014-4.2998C31.6014-3.28809 31.7309-2.59554 31.9898-2.22217 32.2488-1.8488 32.9323-1.66211 34.0404-1.66211L34.9979-1.66211 34.9979 0 23.7786 0 23.7786-1.66211 24.7181-1.66211C25.7298-1.66211 26.3501-1.85482 26.5789-2.24023 26.8078-2.62565 26.9222-3.31217 26.9222-4.2998L26.9222-9.57519C26.9222-10.3822 26.8409-10.9603 26.6783-11.3096 26.5157-11.6589 26.2236-11.8907 25.8021-12.0051 25.3805-12.1195 24.7061-12.1768 23.7786-12.1768L23.7786-13.8389 30.8245-15.3926C31.0052-14.7783 31.1738-13.4715 31.3304-11.4722 31.6676-12.1828 32.1103-12.8332 32.6583-13.4233 33.2063-14.0135 33.8206-14.4893 34.5011-14.8506 35.1816-15.2119 35.8771-15.3926 36.5877-15.3926 37.5754-15.3926 38.3582-15.1156 38.9364-14.5615 39.5145-14.0075 39.8035-13.333 39.8035-12.5381ZM58.8442-7.44336C58.8442-5.80534 58.4468-4.37809 57.6519-3.16162 56.8569-1.94515 55.782-1.01473 54.427-0.370361 53.072 0.274007 51.5876 0.596191 49.9736 0.596191 48.4561 0.596191 47.0198 0.301107 45.6648-0.289062 44.3098-0.879232 43.2017-1.77653 42.3406-2.98096 41.4794-4.18538 41.0488-5.66081 41.0488-7.40723 41.0488-10.0208 41.9401-12.0051 43.7227-13.3601 45.5052-14.7151 47.625-15.3926 50.082-15.3926 51.9128-15.3926 53.4906-15.0312 54.8154-14.3086 56.1403-13.5859 57.143-12.6164 57.8235-11.3999 58.504-10.1834 58.8442-8.86458 58.8442-7.44336ZM53.8579-7.55176C53.8579-9.59928 53.5869-11.1409 53.0449-12.1768 52.5029-13.2126 51.4491-13.7305 49.8833-13.7305 48.8836-13.7305 48.1038-13.5046 47.5437-13.053 46.9836-12.6013 46.5922-11.9027 46.3694-10.9573 46.1466-10.0118 46.0352-8.78629 46.0352-7.28076 46.0352-5.42594 46.2821-3.92643 46.7759-2.78223 47.2697-1.63802 48.3477-1.06592 50.0098-1.06592 51.1058-1.06592 51.9399-1.38208 52.512-2.0144 53.0841-2.64673 53.4514-3.42961 53.614-4.36304 53.7766-5.29647 53.8579-6.35937 53.8579-7.55176ZM76.8135-21.3545C76.8135-20.7041 76.5756-20.1711 76.0999-19.7556 75.6241-19.3401 75.1092-19.1323 74.5552-19.1323 73.8084-19.1323 73.2664-19.3792 72.9292-19.873 72.592-20.3669 72.321-21.0052 72.1162-21.7881 71.8271-22.7757 71.255-23.2695 70.3999-23.2695 69.5929-23.2695 69.0901-22.9654 68.8914-22.3572 68.6926-21.7489 68.5933-20.8185 68.5933-19.5659L68.5933-14.7964 72.2607-14.7964 72.2607-13.1343 68.5933-13.1343 68.5933-4.2998C68.5933-3.57715 68.6294-3.0472 68.7017-2.70996 68.7739-2.37272 68.9636-2.11377 69.2708-1.93311 69.5779-1.75244 70.0928-1.66211 70.8154-1.66211L71.4839-1.66211 71.4839 0 60.897 0 60.897-1.66211 61.71-1.66211C62.3724-1.66211 62.8602-1.74943 63.1733-1.92407 63.4865-2.09871 63.6912-2.3667 63.7876-2.72803 63.8839-3.08935 63.9321-3.61328 63.9321-4.2998L63.9321-13.1343 60.897-13.1343 60.897-14.7964 63.9321-14.7964 63.9321-16.9102C63.9321-17.6449 63.9803-18.3585 64.0767-19.051 64.173-19.7436 64.3958-20.4632 64.7451-21.21 65.1908-22.1253 65.7779-22.857 66.5066-23.405 67.2353-23.953 68.0272-24.3445 68.8823-24.5793 69.7375-24.8142 70.5926-24.9316 71.4478-24.9316 72.8328-24.9316 73.9229-24.7239 74.7178-24.3083 75.5127-23.8928 76.0607-23.408 76.3618-22.854 76.6629-22.3 76.8135-21.8001 76.8135-21.3545ZM80.209-2.22217C80.209-1.42725 79.932-0.758789 79.3779-0.216797 78.8239 0.325195 78.1554 0.596191 77.3726 0.596191 76.6017 0.596191 75.9393 0.325195 75.3853-0.216797 74.8312-0.758789 74.5542-1.42725 74.5542-2.22217 74.5542-3.01709 74.8252-3.69157 75.3672-4.2456 75.9092-4.79964 76.5776-5.07666 77.3726-5.07666 78.1675-5.07666 78.8389-4.80265 79.387-4.25464 79.935-3.70662 80.209-3.02913 80.209-2.22217ZM116.797 0 105.253 0 105.253-1.66211C106.228-1.66211 106.939-1.73136 107.384-1.86987 107.83-2.00838 108.053-2.33659 108.053-2.85449 108.053-3.21582 107.981-3.58317 107.836-3.95654L106.68-6.84717 98.7306-6.84717 98.1344-5.25732C97.7972-4.36605 97.6286-3.72168 97.6286-3.32422 97.6286-2.60156 97.9086-2.14388 98.4687-1.95117 99.0287-1.75846 99.6821-1.66211 100.429-1.66211L100.429 0 91.9919 0 91.9919-1.66211C92.6663-1.66211 93.2384-1.78857 93.7082-2.0415 94.1779-2.29443 94.6265-2.77319 95.0541-3.47778 95.4817-4.18237 95.9424-5.17904 96.4362-6.46777L103.5-24.9678 105.216-24.9678 112.678-5.88965C113.22-4.54069 113.617-3.62834 113.87-3.15259 114.123-2.67684 114.472-2.30949 114.918-2.05054 115.364-1.79159 115.99-1.66211 116.797-1.66211ZM106.029-8.61767 102.651-17.1631 99.4352-8.61767ZM138.193 0 128.835 0 128.835-1.66211C129.546-1.66211 130.054-1.75545 130.362-1.94214 130.669-2.12882 130.858-2.40283 130.931-2.76416 131.003-3.12549 131.039-3.72168 131.039-4.55273L131.039-9.66553C131.039-10.6893 130.889-11.4993 130.587-12.0955 130.286-12.6916 129.672-12.9897 128.745-12.9897 127.48-12.9897 126.538-12.505 125.917-11.5354 125.297-10.5658 124.987-9.44873 124.987-8.18408L124.987-4.13721C124.987-3.18571 125.125-2.53532 125.402-2.18603 125.679-1.83675 126.276-1.66211 127.191-1.66211L127.191 0 117.652 0 117.652-1.66211C118.435-1.66211 119.013-1.73136 119.386-1.86987 119.76-2.00838 120.007-2.25529 120.127-2.6106 120.247-2.9659 120.308-3.52897 120.308-4.2998L120.308-10.1353C120.308-10.9784 120.145-11.5294 119.82-11.7883 119.495-12.0473 118.772-12.1768 117.652-12.1768L117.652-13.8389 124.68-15.3926C124.788-14.694 124.842-14.0436 124.842-13.4414 124.842-13.2848 124.839-13.1493 124.833-13.0349 124.827-12.9205 124.824-12.791 124.824-12.6465 125.583-13.4534 126.372-14.1129 127.191-14.6248 128.01-15.1366 129.034-15.3926 130.262-15.3926 131.298-15.3926 132.228-15.2059 133.053-14.8325 133.878-14.4591 134.526-13.8931 134.996-13.1343 135.465-12.3755 135.7-11.4601 135.7-10.3882L135.7-4.2998C135.7-3.28809 135.836-2.59554 136.107-2.22217 136.378-1.8488 137.073-1.66211 138.193-1.66211ZM151.816-3.21582C151.166-1.85482 150.407-0.879232 149.54-0.289062 148.673 0.301107 147.655 0.596191 146.487 0.596191 145.065 0.596191 144.018 0.307129 143.343-0.270996 142.669-0.849121 142.253-1.4965 142.097-2.21313 141.94-2.92977 141.862-3.73372 141.862-4.625L141.862-13.1343 139.134-13.1343 139.134-14.7964C140.278-14.7964 141.271-15.0132 142.115-15.4468 142.958-15.8804 143.623-16.4645 144.111-17.1992 144.599-17.9339 144.909-18.7228 145.041-19.5659L146.523-19.5659 146.523-14.7964 151.636-14.7964 151.636-13.1343 146.523-13.1343 146.523-4.5166C146.523-3.46875 146.592-2.71297 146.731-2.24927 146.869-1.78556 147.209-1.55371 147.751-1.55371 148.329-1.55371 148.805-1.77954 149.179-2.2312 149.552-2.68286 149.913-3.24593 150.263-3.92041ZM171.136-7.44336C171.136-5.80534 170.738-4.37809 169.944-3.16162 169.149-1.94515 168.074-1.01473 166.719-0.370361 165.364 0.274007 163.879 0.596191 162.265 0.596191 160.748 0.596191 159.311 0.301107 157.956-0.289062 156.601-0.879232 155.493-1.77653 154.632-2.98096 153.771-4.18538 153.34-5.66081 153.34-7.40723 153.34-10.0208 154.232-12.0051 156.014-13.3601 157.797-14.7151 159.917-15.3926 162.374-15.3926 164.204-15.3926 165.782-15.0312 167.107-14.3086 168.432-13.5859 169.435-12.6164 170.115-11.3999 170.796-10.1834 171.136-8.86458 171.136-7.44336ZM166.15-7.55176C166.15-9.59928 165.879-11.1409 165.337-12.1768 164.795-13.2126 163.741-13.7305 162.175-13.7305 161.175-13.7305 160.395-13.5046 159.835-13.053 159.275-12.6013 158.884-11.9027 158.661-10.9573 158.438-10.0118 158.327-8.78629 158.327-7.28076 158.327-5.42594 158.574-3.92643 159.068-2.78223 159.561-1.63802 160.639-1.06592 162.301-1.06592 163.397-1.06592 164.232-1.38208 164.804-2.0144 165.376-2.64673 165.743-3.42961 165.906-4.36304 166.068-5.29647 166.15-6.35937 166.15-7.55176ZM193.766 0 184.408 0 184.408-1.66211C185.118-1.66211 185.627-1.75545 185.934-1.94214 186.242-2.12882 186.431-2.40283 186.504-2.76416 186.576-3.12549 186.612-3.72168 186.612-4.55273L186.612-9.66553C186.612-10.6893 186.461-11.4993 186.16-12.0955 185.859-12.6916 185.245-12.9897 184.318-12.9897 183.053-12.9897 182.11-12.505 181.49-11.5354 180.87-10.5658 180.56-9.44873 180.56-8.18408L180.56-4.13721C180.56-3.18571 180.698-2.53532 180.975-2.18603 181.252-1.83675 181.848-1.66211 182.764-1.66211L182.764 0 173.225 0 173.225-1.66211C174.008-1.66211 174.586-1.73136 174.959-1.86987 175.333-2.00838 175.579-2.25529 175.7-2.6106 175.82-2.9659 175.881-3.52897 175.881-4.2998L175.881-10.1353C175.881-10.9784 175.718-11.5294 175.393-11.7883 175.068-12.0473 174.345-12.1768 173.225-12.1768L173.225-13.8389 180.253-15.3926C180.361-14.694 180.415-14.0436 180.415-13.4414 180.415-13.2848 180.412-13.1493 180.406-13.0349 180.4-12.9205 180.397-12.791 180.397-12.6465 181.156-13.4534 181.945-14.1129 182.764-14.6248 183.583-15.1366 184.607-15.3926 185.835-15.3926 186.871-15.3926 187.801-15.2059 188.626-14.8325 189.451-14.4591 190.099-13.8931 190.569-13.1343 191.038-12.3755 191.273-11.4601 191.273-10.3882L191.273-4.2998C191.273-3.28809 191.409-2.59554 191.68-2.22217 191.951-1.8488 192.646-1.66211 193.766-1.66211ZM202.873-22.4565C202.873-21.7339 202.617-21.1166 202.105-20.6047 201.593-20.0929 200.976-19.8369 200.253-19.8369 199.542-19.8369 198.925-20.0989 198.401-20.6228 197.877-21.1467 197.615-21.758 197.615-22.4565 197.615-23.1792 197.874-23.7995 198.392-24.3174 198.91-24.8353 199.53-25.0942 200.253-25.0942 200.988-25.0942 201.608-24.8413 202.114-24.3354 202.62-23.8296 202.873-23.2033 202.873-22.4565ZM204.914 0 195.104 0 195.104-1.66211 195.628-1.66211C196.326-1.66211 196.835-1.75846 197.155-1.95117 197.474-2.14388 197.669-2.41488 197.742-2.76416 197.814-3.11344 197.85-3.62532 197.85-4.2998L197.85-9.66553C197.85-10.4123 197.805-10.9422 197.715-11.2554 197.624-11.5685 197.389-11.7974 197.01-11.9419 196.631-12.0864 195.995-12.1647 195.104-12.1768L195.104-13.8389 202.511-15.3926 202.511-4.2998C202.511-3.28809 202.638-2.59554 202.891-2.22217 203.144-1.8488 203.818-1.66211 204.914-1.66211ZM224.99-7.44336C224.99-5.80534 224.593-4.37809 223.798-3.16162 223.003-1.94515 221.928-1.01473 220.573-0.370361 219.218 0.274007 217.733 0.596191 216.119 0.596191 214.602 0.596191 213.166 0.301107 211.811-0.289062 210.456-0.879232 209.348-1.77653 208.486-2.98096 207.625-4.18538 207.195-5.66081 207.195-7.40723 207.195-10.0208 208.086-12.0051 209.868-13.3601 211.651-14.7151 213.771-15.3926 216.228-15.3926 218.059-15.3926 219.636-15.0312 220.961-14.3086 222.286-13.5859 223.289-12.6164 223.969-11.3999 224.65-10.1834 224.99-8.86458 224.99-7.44336ZM220.004-7.55176C220.004-9.59928 219.733-11.1409 219.191-12.1768 218.649-13.2126 217.595-13.7305 216.029-13.7305 215.029-13.7305 214.25-13.5046 213.69-13.053 213.129-12.6013 212.738-11.9027 212.515-10.9573 212.292-10.0118 212.181-8.78629 212.181-7.28076 212.181-5.42594 212.428-3.92643 212.922-2.78223 213.415-1.63802 214.493-1.06592 216.156-1.06592 217.252-1.06592 218.086-1.38208 218.658-2.0144 219.23-2.64673 219.597-3.42961 219.76-4.36304 219.922-5.29647 220.004-6.35937 220.004-7.55176ZM247.62 0 238.262 0 238.262-1.66211C238.973-1.66211 239.482-1.75545 239.789-1.94214 240.096-2.12882 240.285-2.40283 240.358-2.76416 240.43-3.12549 240.466-3.72168 240.466-4.55273L240.466-9.66553C240.466-10.6893 240.316-11.4993 240.014-12.0955 239.713-12.6916 239.099-12.9897 238.172-12.9897 236.907-12.9897 235.965-12.505 235.344-11.5354 234.724-10.5658 234.414-9.44873 234.414-8.18408L234.414-4.13721C234.414-3.18571 234.552-2.53532 234.829-2.18603 235.106-1.83675 235.703-1.66211 236.618-1.66211L236.618 0 227.079 0 227.079-1.66211C227.862-1.66211 228.44-1.73136 228.813-1.86987 229.187-2.00838 229.434-2.25529 229.554-2.6106 229.674-2.9659 229.735-3.52897 229.735-4.2998L229.735-10.1353C229.735-10.9784 229.572-11.5294 229.247-11.7883 228.922-12.0473 228.199-12.1768 227.079-12.1768L227.079-13.8389 234.107-15.3926C234.215-14.694 234.269-14.0436 234.269-13.4414 234.269-13.2848 234.266-13.1493 234.26-13.0349 234.254-12.9205 234.251-12.791 234.251-12.6465 235.01-13.4534 235.799-14.1129 236.618-14.6248 237.437-15.1366 238.461-15.3926 239.689-15.3926 240.725-15.3926 241.655-15.2059 242.481-14.8325 243.306-14.4591 243.953-13.8931 244.423-13.1343 244.892-12.3755 245.127-11.4601 245.127-10.3882L245.127-4.2998C245.127-3.28809 245.263-2.59554 245.534-2.22217 245.805-1.8488 246.5-1.66211 247.62-1.66211ZM256.727-22.4565C256.727-21.7339 256.471-21.1166 255.959-20.6047 255.447-20.0929 254.83-19.8369 254.107-19.8369 253.396-19.8369 252.779-20.0989 252.255-20.6228 251.731-21.1467 251.469-21.758 251.469-22.4565 251.469-23.1792 251.728-23.7995 252.246-24.3174 252.764-24.8353 253.384-25.0942 254.107-25.0942 254.842-25.0942 255.462-24.8413 255.968-24.3354 256.474-23.8296 256.727-23.2033 256.727-22.4565ZM258.768 0 248.958 0 248.958-1.66211 249.482-1.66211C250.181-1.66211 250.69-1.75846 251.009-1.95117 251.328-2.14388 251.524-2.41488 251.596-2.76416 251.668-3.11344 251.704-3.62532 251.704-4.2998L251.704-9.66553C251.704-10.4123 251.659-10.9422 251.569-11.2554 251.478-11.5685 251.244-11.7974 250.864-11.9419 250.485-12.0864 249.849-12.1647 248.958-12.1768L248.958-13.8389 256.365-15.3926 256.365-4.2998C256.365-3.28809 256.492-2.59554 256.745-2.22217 256.998-1.8488 257.672-1.66211 258.768-1.66211Z" fill="#000000" fill-rule="nonzero" fill-opacity="1" transform="matrix(1.02 0 0 1.02 28.639 52)"/></g></g></g><text fill="#000000" fill-opacity="1" font-family="Baskerville,Baskerville_MSFontService,sans-serif" font-style="normal" font-variant="normal" font-weight="600" font-stretch="normal" font-size="37" text-anchor="start" direction="ltr" writing-mode="lr-tb" unicode-bidi="normal" text-decoration="none" transform="matrix(1 0 0 1 1035.23 1034)">Prof. Antonioni</text></g></g></svg>