<?xml version="1.0" standalone="no"?>
<!DOCTYPE svg PUBLIC "-//W3C//DTD SVG 20010904//EN"
 "http://www.w3.org/TR/2001/REC-SVG-20010904/DTD/svg10.dtd">
<svg version="1.0" xmlns="http://www.w3.org/2000/svg"
 width="129.000000pt" height="132.000000pt" viewBox="0 0 129.000000 132.000000"
 preserveAspectRatio="xMidYMid meet">

<g transform="translate(0.000000,132.000000) scale(0.100000,-0.100000)"
fill="#FF6363" stroke="none">
<path d="M565 1208 c-62 -22 -387 -223 -408 -253 -21 -29 -22 -40 -22 -276 l0
-246 26 -34 c17 -22 78 -65 160 -114 267 -157 285 -163 374 -121 63 29 310
176 349 207 51 40 56 68 56 309 0 202 -2 224 -20 260 -22 43 -26 46 -241 174
-180 107 -209 117 -274 94z m9 -345 c43 -20 49 -33 27 -61 l-16 -22 -40 20
c-49 25 -86 25 -116 1 -21 -18 -22 -21 -9 -34 8 -9 47 -25 87 -36 109 -32 146
-88 108 -161 -22 -42 -63 -60 -137 -60 -47 0 -73 6 -102 23 -48 27 -51 35 -27
67 19 24 20 24 40 6 11 -10 25 -15 32 -10 7 4 10 3 6 -3 -4 -6 3 -13 16 -17
41 -11 75 -6 98 13 35 29 16 52 -62 73 -64 18 -129 47 -127 57 1 3 -2 18 -6
34 -11 38 10 85 48 108 40 24 132 25 180 2z m176 -99 c0 -14 2 -14 22 0 31 22
90 20 120 -4 37 -28 51 -72 46 -137 -4 -48 -10 -61 -37 -85 -36 -32 -92 -38
-129 -12 l-22 15 0 -65 0 -66 -30 0 -30 0 0 185 0 185 30 0 c20 0 30 -5 30
-16z"/>
<path d="M780 717 c-22 -11 -25 -20 -28 -68 -3 -64 10 -82 60 -82 82 0 93 134
13 157 -11 3 -31 0 -45 -7z" />
</g>
</svg>
